<svg xmlns="http://www.w3.org/2000/svg" viewBox="0 0 500 500" width="100%" height="100%">
  <defs>
    <linearGradient id="bgGrad" x1="0%" y1="0%" x2="100%" y2="100%">
      <stop offset="0%" stop-color="#141414" />
      <stop offset="100%" stop-color="#0a0a0a" />
    </linearGradient>
    
    <linearGradient id="zigOrange" x1="0%" y1="0%" x2="100%" y2="100%">
      <stop offset="0%" stop-color="#F7A41D" />
      <stop offset="100%" stop-color="#E67E22" />
    </linearGradient>
    
    <filter id="glow" x="-20%" y="-20%" width="140%" height="140%">
      <feGaussianBlur stdDeviation="6" result="blur" />
      <feComposite in="SourceGraphic" in2="blur" operator="over" />
    </filter>
  </defs>

  <rect width="500" height="500" fill="url(#bgGrad)" rx="40" />
  
  <path d="M 0 100 L 100 100 L 150 150" stroke="#222" stroke-width="6" fill="none" />
  <path d="M 500 400 L 400 400 L 350 350" stroke="#222" stroke-width="6" fill="none" />
  <path d="M 100 500 L 100 400 L 150 350" stroke="#222" stroke-width="6" fill="none" />
  <path d="M 400 0 L 400 100 L 350 150" stroke="#222" stroke-width="6" fill="none" />

  <rect x="150" y="150" width="200" height="200" fill="#181818" rx="12" stroke="#333" stroke-width="4" />
  
  <g fill="#444">
    <rect x="170" y="130" width="12" height="20" rx="2" />
    <rect x="210" y="130" width="12" height="20" rx="2" />
    <rect x="250" y="130" width="12" height="20" rx="2" />
    <rect x="290" y="130" width="12" height="20" rx="2" />
    <rect x="330" y="130" width="12" height="20" rx="2" />
    <rect x="170" y="350" width="12" height="20" rx="2" />
    <rect x="210" y="350" width="12" height="20" rx="2" />
    <rect x="250" y="350" width="12" height="20" rx="2" />
    <rect x="290" y="350" width="12" height="20" rx="2" />
    <rect x="330" y="350" width="12" height="20" rx="2" />
    <rect x="130" y="170" width="20" height="12" rx="2" />
    <rect x="130" y="210" width="20" height="12" rx="2" />
    <rect x="130" y="250" width="20" height="12" rx="2" />
    <rect x="130" y="290" width="20" height="12" rx="2" />
    <rect x="130" y="330" width="20" height="12" rx="2" />
    <rect x="350" y="170" width="20" height="12" rx="2" />
    <rect x="350" y="210" width="20" height="12" rx="2" />
    <rect x="350" y="250" width="20" height="12" rx="2" />
    <rect x="350" y="290" width="20" height="12" rx="2" />
    <rect x="350" y="330" width="20" height="12" rx="2" />
  </g>

  <path d="M 190 200 L 290 200 L 210 300 L 310 300" stroke="url(#zigOrange)" stroke-width="22" stroke-linecap="square" stroke-linejoin="miter" fill="none" filter="url(#glow)" />
  
  <g fill="url(#zigOrange)" opacity="0.9" filter="url(#glow)">
    <rect x="265" y="225" width="8" height="8" />
    <rect x="285" y="255" width="12" height="12" />
    <rect x="235" y="275" width="6" height="6" />
    <rect x="215" y="215" width="10" height="10" />
    <rect x="305" y="205" width="7" height="7" />
    <rect x="195" y="265" width="9" height="9" />
    <rect x="255" y="205" width="5" height="5" />
    <rect x="295" y="275" width="8" height="8" />
    <rect x="275" y="175" width="6" height="6" />
    <rect x="180" y="230" width="7" height="7" />
    <rect x="220" y="315" width="8" height="8" />
  </g>

  <text x="250" y="430" font-family="monospace, sans-serif" font-size="26" fill="#cccccc" text-anchor="middle" font-weight="bold" letter-spacing="6">ENTROPY</text>
  <text x="250" y="460" font-family="monospace, sans-serif" font-size="14" fill="#777777" text-anchor="middle" letter-spacing="3">ZIG // ARDUINO CAPTURE</text>

</svg>
